<svg width="95" height="24" viewBox="0 0 95 24" fill="none" xmlns="http://www.w3.org/2000/svg">
<path d="M91.2358 23.395V0.5H94.4358V23.395H91.2358Z" fill="black"/>
<path d="M79.398 23.498C78.1334 23.498 77.0188 23.2331 76.0543 22.7033C75.0898 22.1735 74.3396 21.4318 73.8038 20.4781C73.2679 19.5033 73 18.3907 73 17.1404V7H76.1829V16.6C76.1829 17.8715 76.5473 18.8781 77.2761 19.6199C78.0262 20.3616 79.0229 20.7324 80.2661 20.7324C81.1449 20.7324 81.9272 20.5523 82.6131 20.1921C83.299 19.8106 83.8562 19.2808 84.2849 18.6026V7H87.5V23.5H84.2849V21.9999C83.0203 23.3138 81.3914 23.498 79.398 23.498Z" fill="black"/>
<path d="M55.0796 23.395V0.5H58.2796V8.98C59.5383 7.65733 61.1703 6.996 63.1756 6.996C64.4343 6.996 65.5329 7.26267 66.4716 7.796C67.4316 8.32933 68.1783 9.076 68.7116 10.036C69.2663 10.996 69.5436 12.1053 69.5436 13.364V23.395H66.3436V13.908C66.3436 12.628 65.9809 11.6253 65.2556 10.9C64.5303 10.1533 63.5383 9.78 62.2796 9.78C61.4263 9.78 60.6583 9.96134 59.9756 10.324C59.2929 10.6867 58.7276 11.2093 58.2796 11.892V23.395H55.0796Z" fill="black"/>
<path d="M45.884 23.396C44.3267 23.396 42.908 23.0227 41.628 22.276C40.348 21.5293 39.3347 20.516 38.588 19.236C37.8627 17.956 37.5 16.5267 37.5 14.948C37.5 13.3693 37.8733 11.9507 38.62 10.692C39.3667 9.412 40.3693 8.39867 41.628 7.652C42.908 6.884 44.3267 6.5 45.884 6.5C47.1213 6.5 48.3053 6.73467 49.436 7.204C50.588 7.67334 51.58 8.33467 52.412 9.188L50.428 11.396C49.8093 10.7133 49.116 10.2013 48.348 9.86C47.58 9.51867 46.78 9.348 45.948 9.348C44.9667 9.348 44.0707 9.59333 43.26 10.084C42.4707 10.5747 41.8413 11.2467 41.372 12.1C40.9027 12.9533 40.668 13.9027 40.668 14.948C40.668 15.9933 40.9027 16.9427 41.372 17.796C41.8413 18.6493 42.4813 19.332 43.292 19.844C44.1027 20.3347 45.0093 20.58 46.012 20.58C46.844 20.58 47.6227 20.42 48.348 20.1C49.0733 19.7587 49.756 19.268 50.396 18.628L52.348 20.676C51.4947 21.5507 50.5027 22.2227 49.372 22.692C48.2627 23.1613 47.1 23.396 45.884 23.396Z" fill="black"/>
<path d="M27.794 23.364C26.194 23.364 24.7433 22.9907 23.442 22.244C22.162 21.4973 21.138 20.484 20.37 19.204C19.6233 17.924 19.25 16.4947 19.25 14.916C19.25 13.3587 19.6127 11.9507 20.338 10.692C21.0633 9.412 22.0447 8.39867 23.282 7.652C24.5193 6.884 25.8953 6.5 27.41 6.5C28.9247 6.5 30.2687 6.884 31.442 7.652C32.6153 8.39867 33.5433 9.42267 34.226 10.724C34.93 12.004 35.282 13.4547 35.282 15.076V15.972H22.45C22.6207 16.868 22.9513 17.668 23.442 18.372C23.954 19.076 24.594 19.6307 25.362 20.036C26.1513 20.4413 27.0047 20.644 27.922 20.644C28.7113 20.644 29.4687 20.5267 30.194 20.292C30.9407 20.036 31.5593 19.6733 32.05 19.204L34.098 21.22C33.138 21.9453 32.146 22.4893 31.122 22.852C30.1193 23.1933 29.01 23.364 27.794 23.364ZM22.482 13.572H32.114C31.986 12.7187 31.6873 11.972 31.218 11.332C30.77 10.6707 30.2047 10.1587 29.522 9.796C28.8607 9.412 28.1353 9.22 27.346 9.22C26.5353 9.22 25.7887 9.40133 25.106 9.764C24.4233 10.1267 23.8473 10.6387 23.378 11.3C22.93 11.94 22.6313 12.6973 22.482 13.572Z" fill="black"/>
<path d="M8.48 23.428C6.90133 23.428 5.46133 23.0547 4.16 22.308C2.88 21.5613 1.86667 20.548 1.12 19.268C0.373333 17.988 0 16.5587 0 14.98C0 13.4013 0.373333 11.972 1.12 10.692C1.86667 9.412 2.88 8.39867 4.16 7.652C5.46133 6.884 6.90133 6.5 8.48 6.5C10.08 6.5 11.52 6.884 12.8 7.652C14.08 8.39867 15.0933 9.412 15.84 10.692C16.5867 11.972 16.96 13.4013 16.96 14.98C16.96 16.5587 16.5867 17.988 15.84 19.268C15.0933 20.548 14.08 21.5613 12.8 22.308C11.52 23.0547 10.08 23.428 8.48 23.428ZM8.48 20.612C9.48267 20.612 10.3893 20.3667 11.2 19.876C12.0107 19.364 12.6507 18.6813 13.12 17.828C13.5893 16.9747 13.824 16.0147 13.824 14.948C13.824 13.9027 13.5787 12.964 13.088 12.132C12.6187 11.2787 11.9787 10.596 11.168 10.084C10.3787 9.572 9.48267 9.316 8.48 9.316C7.47733 9.316 6.57067 9.572 5.76 10.084C4.97067 10.596 4.33067 11.2787 3.84 12.132C3.37067 12.964 3.136 13.9027 3.136 14.948C3.136 16.0147 3.37067 16.9747 3.84 17.828C4.30933 18.6813 4.94933 19.364 5.76 19.876C6.57067 20.3667 7.47733 20.612 8.48 20.612Z" fill="black"/>
</svg>
